<svg width="17" height="16" viewBox="0 0 17 16" fill="none" xmlns="http://www.w3.org/2000/svg">
<path d="M2.7515 1.99153C1.59282 3.1485 0.918906 4.70376 0.867092 6.34035C0.815278 7.97695 1.38946 9.57171 2.47264 10.7997C3.55581 12.0276 5.06645 12.7963 6.69672 12.9492C8.29727 13.0992 9.89485 12.6446 11.1757 11.6767L14.5069 15.0087L14.5069 15.0087C14.5897 15.0915 14.6881 15.1572 14.7963 15.2021C14.9046 15.2469 15.0206 15.27 15.1377 15.27C15.2549 15.27 15.3709 15.2469 15.4791 15.2021C15.5873 15.1572 15.6857 15.0915 15.7685 15.0087C15.8514 14.9258 15.9171 14.8275 15.9619 14.7192C16.0068 14.611 16.0298 14.495 16.0298 14.3779C16.0298 14.2607 16.0068 14.1447 15.9619 14.0365C15.9171 13.9282 15.8514 13.8299 15.7685 13.747L15.7685 13.747L12.4368 10.4161C13.4021 9.13509 13.8547 7.53858 13.7038 5.93955C13.5501 4.31066 12.7816 2.80151 11.5547 1.71913C10.3277 0.636745 8.73451 0.0624375 7.09916 0.113042C5.46381 0.163647 3.90917 0.835356 2.7515 1.99153ZM2.7515 1.99153L2.82216 2.06229L2.7515 1.99153ZM10.5895 3.25378C11.0271 3.68428 11.3751 4.19715 11.6135 4.76281C11.8518 5.32848 11.9758 5.93574 11.9783 6.54956C11.9808 7.16339 11.8618 7.77164 11.628 8.33923C11.3943 8.90681 11.0505 9.4225 10.6164 9.85654C10.1824 10.2906 9.66668 10.6344 9.09909 10.8682C8.53151 11.1019 7.92326 11.221 7.30943 11.2185C6.6956 11.216 6.08834 11.092 5.52268 10.8536C4.95702 10.6152 4.44415 10.2672 4.01365 9.82966C3.15334 8.95522 2.67341 7.77625 2.6784 6.54956C2.6834 5.32288 3.17291 4.14786 4.04032 3.28045C4.90772 2.41304 6.08274 1.92353 7.30943 1.91854C8.53612 1.91354 9.71508 2.39347 10.5895 3.25378Z" fill="white" stroke="white" stroke-width="0.2"/>
</svg>
