<svg width="20" height="22" viewBox="0 0 20 22" fill="none" xmlns="http://www.w3.org/2000/svg">
<path d="M4.99998 7V5C4.99998 3.67392 5.06229 1.93768 5.99998 1C6.93766 0.0623181 8.67389 0 9.99998 0C11.3261 0 13.0623 0.0623181 14 1C14.9377 1.93768 15 3.67392 15 5V7H18C18.2652 7 18.8124 6.81246 19 7C19.1875 7.18754 19 7.73478 19 8V20C19 20.2652 19.1875 20.8125 19 21C18.8124 21.1875 18.2652 21 18 21H1.99998C1.73476 21 1.18751 21.1875 0.999975 21C0.812439 20.8125 0.999975 20.2652 0.999975 20V8C0.999975 7.73478 0.812439 7.18754 0.999975 7C1.18751 6.81246 1.73476 7 1.99998 7H4.99998ZM4.99998 9H2.99998V19H17V9H15V11H13V9H6.99998V11H4.99998V9ZM6.99998 7H13V5C13 4.20435 12.5626 3.56261 12 3C11.4374 2.43739 10.7956 2 9.99998 2C9.20433 2 8.56258 2.43739 7.99998 3C7.43737 3.56261 6.99998 4.20435 6.99998 5V7Z" fill="#C4C4C4"/>
</svg>
